<svg width="157" height="52" viewBox="0 0 157 52" fill="none" xmlns="http://www.w3.org/2000/svg">
<path fill-rule="evenodd" clip-rule="evenodd" d="M5.91357 17.0783C9.11972 9.35514 16.6634 4.32462 25.0256 4.33339C30.5056 4.33338 35.7609 6.5118 39.6338 10.3888C43.5068 14.2658 45.6797 19.5234 45.6739 25.0034C45.6739 33.3656 40.6355 40.904 32.909 44.102C25.1825 47.3001 16.2902 45.5277 10.3804 39.6116C4.47051 33.6955 2.70742 24.8014 5.91357 17.0783ZM41.2323 31.2867C41.9888 29.2788 42.3706 27.1491 42.3589 25.0034C42.4076 21.0572 41.1082 17.2126 38.6756 14.1051C37.7006 15.7301 35.8589 18.1567 33.5839 18.1567C32.7087 18.0863 31.8279 18.1744 30.9839 18.4167V18.6551C30.9839 19.0451 32.0456 20.1067 32.6089 20.6701C34.0119 21.7162 34.9461 23.2731 35.2089 25.0034C35.2089 28.4701 35.5556 29.5317 35.8589 29.7917C37.732 29.9257 39.5592 30.4341 41.2323 31.2867ZM7.69226 25.0034C7.67256 21.149 8.93815 17.398 11.2889 14.3434C11.9029 15.4631 13.0889 16.148 14.3656 16.1201C16.1187 17.004 17.6684 18.2437 18.9156 19.7601C17.9979 20.3243 17.1661 21.0175 16.4456 21.8184C16.3787 21.8828 16.3059 21.9537 16.2288 22.0288C15.631 22.6109 14.7735 23.4459 14.4089 23.4651C13.4058 23.4347 12.4347 23.8199 11.7251 24.5295C11.0154 25.2391 10.6303 26.2103 10.6606 27.2134C10.6637 27.4617 10.723 27.7062 10.8339 27.9284L12.7839 31.8284C12.8088 34.0716 13.1666 36.2986 13.8456 38.4367C9.89312 35.1012 7.63657 30.1749 7.69226 25.0034ZM19.1106 41.2967C21.0067 41.9849 23.0084 42.3369 25.0256 42.3367V42.4017C30.9888 42.4418 36.5538 39.4138 39.7589 34.3851C38.452 33.7522 37.0567 33.3212 35.6206 33.1067C31.8723 33.1067 31.8723 27.7334 31.8723 25.1334C31.8723 24.7407 30.9064 23.7764 30.3095 23.1805C30.2806 23.1517 30.2526 23.1237 30.2256 23.0967C28.8325 22.0451 27.9069 20.4894 27.6473 18.7634C27.6473 15.0151 31.4606 15.0151 33.4973 15.0151C34.0606 14.9934 35.4039 13.3901 36.2273 11.7867C29.8025 6.34809 20.3991 6.31154 13.9323 11.7001C13.9651 11.8864 13.9651 12.077 13.9323 12.2634C13.9539 12.7834 14.1923 12.7834 14.4306 12.7834C17.0306 12.7834 22.8589 18.0701 22.9456 20.5401C22.9491 21.097 22.7141 21.6289 22.3001 22.0016C21.8861 22.3742 21.3325 22.552 20.7789 22.4901C20.3889 22.5117 19.3273 23.5734 18.7639 24.1367C17.7099 25.531 16.1569 26.4628 14.4306 26.7367C14.2573 26.7367 13.9973 26.7367 13.9973 26.9534L15.8823 30.5717C15.9932 30.7939 16.0525 31.0384 16.0556 31.2867C16.0556 33.6484 16.5756 37.4834 17.7023 38.6317C18.4884 39.3128 18.9908 40.2636 19.1106 41.2967Z" fill="#389CFF"/>
<path d="M66.0437 40H53.0437V36.56L56.5237 34.96V16.48L53.0437 14.88V11.44H66.0437V14.88L62.5637 16.48V34.96L66.0437 36.56V40ZM93.3665 40H87.3265V27.68H76.0065V40H69.9665V11.44H76.0065V22.64H87.3265V11.44H93.3665V40ZM123.008 40H116.968V27.68H105.648V40H99.6085V11.44H105.648V22.64H116.968V11.44H123.008V40ZM152.65 40H146.61V27.68H135.29V40H129.25V11.44H135.29V22.64H146.61V11.44H152.65V40Z" fill="#389CFF"/>
</svg>
